<svg xmlns="http://www.w3.org/2000/svg" xmlns:xlink="http://www.w3.org/1999/xlink" width="300" zoomAndPan="magnify" viewBox="0 0 224.87999 74.999997" height="100" preserveAspectRatio="xMidYMid meet" version="1.0"><defs><g/><clipPath id="8b08873a0e"><path d="M 176.199219 17.808594 L 211.433594 17.808594 L 211.433594 50.792969 L 176.199219 50.792969 Z M 176.199219 17.808594 " clip-rule="nonzero"/></clipPath></defs><g fill="#ffffff" fill-opacity="1"><g transform="translate(2.552864, 49.499171)"><g><path d="M 13.25 -30.578125 C 14.875 -30.578125 16.460938 -30.335938 18.015625 -29.859375 C 19.566406 -29.390625 20.722656 -28.925781 21.484375 -28.46875 L 22.578125 -27.734375 L 19.8125 -22.28125 C 19.59375 -22.425781 19.285156 -22.613281 18.890625 -22.84375 C 18.503906 -23.070312 17.773438 -23.378906 16.703125 -23.765625 C 15.640625 -24.160156 14.644531 -24.359375 13.71875 -24.359375 C 12.582031 -24.359375 11.703125 -24.113281 11.078125 -23.625 C 10.460938 -23.144531 10.15625 -22.488281 10.15625 -21.65625 C 10.15625 -21.25 10.300781 -20.867188 10.59375 -20.515625 C 10.882812 -20.160156 11.378906 -19.78125 12.078125 -19.375 C 12.785156 -18.976562 13.40625 -18.660156 13.9375 -18.421875 C 14.476562 -18.179688 15.304688 -17.816406 16.421875 -17.328125 C 18.359375 -16.503906 20.015625 -15.378906 21.390625 -13.953125 C 22.765625 -12.535156 23.453125 -10.929688 23.453125 -9.140625 C 23.453125 -7.410156 23.140625 -5.898438 22.515625 -4.609375 C 21.898438 -3.328125 21.050781 -2.320312 19.96875 -1.59375 C 18.882812 -0.875 17.6875 -0.335938 16.375 0.015625 C 15.070312 0.367188 13.65625 0.546875 12.125 0.546875 C 10.8125 0.546875 9.523438 0.410156 8.265625 0.140625 C 7.003906 -0.117188 5.945312 -0.445312 5.09375 -0.84375 C 4.25 -1.25 3.484375 -1.644531 2.796875 -2.03125 C 2.117188 -2.425781 1.625 -2.753906 1.3125 -3.015625 L 0.84375 -3.421875 L 4.265625 -9.171875 C 4.554688 -8.929688 4.953125 -8.625 5.453125 -8.25 C 5.960938 -7.875 6.867188 -7.367188 8.171875 -6.734375 C 9.472656 -6.097656 10.617188 -5.78125 11.609375 -5.78125 C 14.503906 -5.78125 15.953125 -6.765625 15.953125 -8.734375 C 15.953125 -9.148438 15.847656 -9.53125 15.640625 -9.875 C 15.429688 -10.226562 15.066406 -10.582031 14.546875 -10.9375 C 14.023438 -11.289062 13.5625 -11.570312 13.15625 -11.78125 C 12.757812 -11.988281 12.101562 -12.300781 11.1875 -12.71875 C 10.28125 -13.144531 9.609375 -13.46875 9.171875 -13.6875 C 7.347656 -14.582031 5.9375 -15.703125 4.9375 -17.046875 C 3.945312 -18.398438 3.453125 -19.851562 3.453125 -21.40625 C 3.453125 -24.101562 4.445312 -26.304688 6.4375 -28.015625 C 8.425781 -29.722656 10.695312 -30.578125 13.25 -30.578125 Z M 13.25 -30.578125 "/></g></g></g><g fill="#ffffff" fill-opacity="1"><g transform="translate(27.020563, 49.499171)"><g><path d="M 9.03125 -30.03125 L 9.03125 0 L 2.1875 0 L 2.1875 -30.03125 Z M 9.03125 -30.03125 "/></g></g></g><g fill="#ffffff" fill-opacity="1"><g transform="translate(38.234925, 49.499171)"><g><path d="M 9.03125 -18.640625 L 9.03125 0 L 2.1875 0 L 2.1875 -30.03125 L 9.03125 -30.03125 L 20.96875 -11.390625 L 21.046875 -11.390625 L 21.046875 -30.03125 L 27.890625 -30.03125 L 27.890625 0 L 21.046875 0 L 9.109375 -18.640625 Z M 9.03125 -18.640625 "/></g></g></g><g fill="#ffffff" fill-opacity="1"><g transform="translate(68.309808, 49.499171)"><g><path d="M 2.1875 -30.03125 L 10.890625 -30.03125 C 15.054688 -30.03125 18.617188 -28.601562 21.578125 -25.75 C 24.546875 -22.90625 26.03125 -19.332031 26.03125 -15.03125 C 26.03125 -10.71875 24.554688 -7.132812 21.609375 -4.28125 C 18.660156 -1.425781 15.085938 0 10.890625 0 L 2.1875 0 Z M 9.03125 -6.109375 L 10.078125 -6.109375 C 12.578125 -6.109375 14.625 -6.953125 16.21875 -8.640625 C 17.8125 -10.328125 18.617188 -12.445312 18.640625 -15 C 18.640625 -17.550781 17.84375 -19.675781 16.25 -21.375 C 14.664062 -23.070312 12.609375 -23.921875 10.078125 -23.921875 L 9.03125 -23.921875 Z M 9.03125 -6.109375 "/></g></g></g><g fill="#ffffff" fill-opacity="1"><g transform="translate(95.180582, 49.499171)"><g><path d="M 19.375 -30.03125 L 19.375 -24.03125 L 9.03125 -24.03125 L 9.03125 -18.0625 L 18.9375 -18.0625 L 18.9375 -12.046875 L 9.03125 -12.046875 L 9.03125 -6 L 19.375 -6 L 19.375 0 L 2.1875 0 L 2.1875 -30.03125 Z M 19.375 -30.03125 "/></g></g><g transform="translate(116.298531, 49.499171)"><g><path d="M 13.25 -30.578125 C 14.875 -30.578125 16.460938 -30.335938 18.015625 -29.859375 C 19.566406 -29.390625 20.722656 -28.925781 21.484375 -28.46875 L 22.578125 -27.734375 L 19.8125 -22.28125 C 19.59375 -22.425781 19.285156 -22.613281 18.890625 -22.84375 C 18.503906 -23.070312 17.773438 -23.378906 16.703125 -23.765625 C 15.640625 -24.160156 14.644531 -24.359375 13.71875 -24.359375 C 12.582031 -24.359375 11.703125 -24.113281 11.078125 -23.625 C 10.460938 -23.144531 10.15625 -22.488281 10.15625 -21.65625 C 10.15625 -21.25 10.300781 -20.867188 10.59375 -20.515625 C 10.882812 -20.160156 11.378906 -19.78125 12.078125 -19.375 C 12.785156 -18.976562 13.40625 -18.660156 13.9375 -18.421875 C 14.476562 -18.179688 15.304688 -17.816406 16.421875 -17.328125 C 18.359375 -16.503906 20.015625 -15.378906 21.390625 -13.953125 C 22.765625 -12.535156 23.453125 -10.929688 23.453125 -9.140625 C 23.453125 -7.410156 23.140625 -5.898438 22.515625 -4.609375 C 21.898438 -3.328125 21.050781 -2.320312 19.96875 -1.59375 C 18.882812 -0.875 17.6875 -0.335938 16.375 0.015625 C 15.070312 0.367188 13.65625 0.546875 12.125 0.546875 C 10.8125 0.546875 9.523438 0.410156 8.265625 0.140625 C 7.003906 -0.117188 5.945312 -0.445312 5.09375 -0.84375 C 4.25 -1.25 3.484375 -1.644531 2.796875 -2.03125 C 2.117188 -2.425781 1.625 -2.753906 1.3125 -3.015625 L 0.84375 -3.421875 L 4.265625 -9.171875 C 4.554688 -8.929688 4.953125 -8.625 5.453125 -8.25 C 5.960938 -7.875 6.867188 -7.367188 8.171875 -6.734375 C 9.472656 -6.097656 10.617188 -5.78125 11.609375 -5.78125 C 14.503906 -5.78125 15.953125 -6.765625 15.953125 -8.734375 C 15.953125 -9.148438 15.847656 -9.53125 15.640625 -9.875 C 15.429688 -10.226562 15.066406 -10.582031 14.546875 -10.9375 C 14.023438 -11.289062 13.5625 -11.570312 13.15625 -11.78125 C 12.757812 -11.988281 12.101562 -12.300781 11.1875 -12.71875 C 10.28125 -13.144531 9.609375 -13.46875 9.171875 -13.6875 C 7.347656 -14.582031 5.9375 -15.703125 4.9375 -17.046875 C 3.945312 -18.398438 3.453125 -19.851562 3.453125 -21.40625 C 3.453125 -24.101562 4.445312 -26.304688 6.4375 -28.015625 C 8.425781 -29.722656 10.695312 -30.578125 13.25 -30.578125 Z M 13.25 -30.578125 "/></g></g></g><g fill="#ffffff" fill-opacity="1"><g transform="translate(140.766232, 49.499171)"><g><path d="M 29.53125 0 L 20.09375 0 L 9.03125 -12.75 L 9.03125 0 L 2.1875 0 L 2.1875 -30.03125 L 9.03125 -30.03125 L 9.03125 -17.765625 L 19.328125 -30.03125 L 27.625 -30.03125 L 15.546875 -15.796875 Z M 29.53125 0 "/></g></g></g><path fill="#ee9d22" d="M 197.480469 33.160156 C 197.480469 33.632812 197.390625 34.082031 197.210938 34.519531 C 197.03125 34.953125 196.773438 35.335938 196.441406 35.667969 C 196.109375 36 195.726562 36.257812 195.289062 36.4375 C 194.855469 36.617188 194.402344 36.707031 193.933594 36.707031 C 193.464844 36.707031 193.011719 36.617188 192.578125 36.4375 C 192.140625 36.257812 191.757812 36 191.425781 35.667969 C 191.09375 35.335938 190.835938 34.953125 190.65625 34.519531 C 190.476562 34.082031 190.386719 33.632812 190.386719 33.160156 C 190.386719 32.691406 190.476562 32.238281 190.65625 31.804688 C 190.835938 31.371094 191.09375 30.984375 191.425781 30.652344 C 191.757812 30.320312 192.140625 30.066406 192.578125 29.882812 C 193.011719 29.703125 193.464844 29.613281 193.933594 29.613281 C 194.402344 29.613281 194.855469 29.703125 195.289062 29.882812 C 195.726562 30.066406 196.109375 30.320312 196.441406 30.652344 C 196.773438 30.984375 197.03125 31.371094 197.210938 31.804688 C 197.390625 32.238281 197.480469 32.691406 197.480469 33.160156 Z M 197.480469 33.160156 " fill-opacity="1" fill-rule="nonzero"/><g clip-path="url(#8b08873a0e)"><path fill="#ee9d22" d="M 185.078125 17.816406 C 179.777344 20.882812 176.199219 26.601562 176.199219 33.160156 L 188.613281 33.160156 C 188.613281 31.195312 189.6875 29.476562 191.277344 28.558594 Z M 202.792969 17.816406 L 196.59375 28.558594 C 198.179688 29.476562 199.25 31.195312 199.25 33.160156 L 211.664062 33.160156 C 211.664062 26.601562 208.089844 20.886719 202.792969 17.816406 Z M 196.589844 37.761719 C 195.808594 38.214844 194.902344 38.480469 193.933594 38.480469 C 192.964844 38.480469 192.058594 38.21875 191.277344 37.765625 L 185.078125 48.503906 C 187.683594 50.015625 190.707031 50.894531 193.933594 50.894531 C 197.164062 50.894531 200.179688 50.015625 202.789062 48.503906 L 196.589844 37.765625 Z M 196.589844 37.761719 " fill-opacity="1" fill-rule="nonzero"/></g></svg>