<svg xmlns="http://www.w3.org/2000/svg" xmlns:xlink="http://www.w3.org/1999/xlink" width="500" zoomAndPan="magnify" viewBox="0 0 375 374.999991" height="500" preserveAspectRatio="xMidYMid meet" version="1.0"><defs><g/><clipPath id="1bdf395b71"><path d="M 112.5 187.5 L 262.5 187.5 L 262.5 327.75 L 112.5 327.75 Z M 112.5 187.5 " clip-rule="nonzero"/></clipPath></defs><path fill="#bd4a03" d="M 202.5 252.40625 C 202.5 253.390625 202.402344 254.363281 202.210938 255.332031 C 202.019531 256.296875 201.734375 257.234375 201.355469 258.144531 C 200.980469 259.054688 200.519531 259.917969 199.972656 260.738281 C 199.425781 261.554688 198.800781 262.3125 198.105469 263.011719 C 197.410156 263.707031 196.652344 264.328125 195.832031 264.875 C 195.015625 265.421875 194.148438 265.882812 193.238281 266.261719 C 192.332031 266.636719 191.390625 266.921875 190.425781 267.113281 C 189.460938 267.308594 188.484375 267.402344 187.5 267.402344 C 186.515625 267.402344 185.539062 267.308594 184.574219 267.113281 C 183.609375 266.921875 182.671875 266.636719 181.761719 266.261719 C 180.851562 265.882812 179.988281 265.421875 179.167969 264.875 C 178.347656 264.328125 177.59375 263.707031 176.894531 263.011719 C 176.199219 262.3125 175.578125 261.554688 175.03125 260.738281 C 174.484375 259.917969 174.019531 259.054688 173.644531 258.144531 C 173.265625 257.234375 172.984375 256.296875 172.789062 255.332031 C 172.597656 254.363281 172.503906 253.390625 172.503906 252.40625 C 172.503906 251.421875 172.597656 250.445312 172.789062 249.480469 C 172.984375 248.511719 173.265625 247.574219 173.644531 246.664062 C 174.019531 245.753906 174.484375 244.890625 175.03125 244.074219 C 175.578125 243.253906 176.199219 242.496094 176.894531 241.800781 C 177.59375 241.101562 178.347656 240.480469 179.167969 239.933594 C 179.988281 239.386719 180.851562 238.925781 181.761719 238.546875 C 182.671875 238.171875 183.609375 237.886719 184.574219 237.695312 C 185.539062 237.503906 186.515625 237.40625 187.5 237.40625 C 188.484375 237.40625 189.460938 237.503906 190.425781 237.695312 C 191.390625 237.886719 192.332031 238.171875 193.238281 238.546875 C 194.148438 238.925781 195.015625 239.386719 195.832031 239.933594 C 196.652344 240.480469 197.410156 241.101562 198.105469 241.800781 C 198.800781 242.496094 199.425781 243.253906 199.972656 244.074219 C 200.519531 244.890625 200.980469 245.753906 201.355469 246.664062 C 201.734375 247.574219 202.019531 248.511719 202.210938 249.480469 C 202.402344 250.445312 202.5 251.421875 202.5 252.40625 Z M 202.5 252.40625 " fill-opacity="1" fill-rule="nonzero"/><g clip-path="url(#1bdf395b71)"><path fill="#bd4a03" d="M 150.046875 187.511719 C 127.636719 200.484375 112.507812 224.667969 112.507812 252.40625 L 165.003906 252.40625 C 165.003906 244.085938 169.539062 236.828125 176.261719 232.9375 Z M 224.964844 187.511719 L 198.75 232.9375 C 205.464844 236.828125 209.992188 244.089844 209.992188 252.40625 L 262.492188 252.40625 C 262.492188 224.671875 247.371094 200.488281 224.964844 187.511719 Z M 198.734375 271.867188 C 195.425781 273.785156 191.601562 274.898438 187.503906 274.898438 C 183.410156 274.898438 179.570312 273.796875 176.261719 271.882812 L 150.042969 317.292969 C 161.078125 323.679688 173.847656 327.398438 187.507812 327.398438 C 201.160156 327.398438 213.921875 323.679688 224.953125 317.292969 L 198.738281 271.871094 Z M 198.734375 271.867188 " fill-opacity="1" fill-rule="nonzero"/></g><g fill="#bd4a03" fill-opacity="1"><g transform="translate(7.08097, 149.121439)"><g><path d="M 5.203125 -0.1875 L 5.203125 -18.75 C 5.203125 -19.4375 5.21875 -19.898438 5.25 -20.140625 C 5.28125 -20.390625 5.382812 -20.601562 5.5625 -20.78125 C 5.75 -20.957031 6.023438 -21.046875 6.390625 -21.046875 C 7.078125 -21.046875 7.453125 -20.726562 7.515625 -20.09375 C 7.691406 -13.96875 9.609375 -9.21875 13.265625 -5.84375 C 16.859375 -2.488281 21.734375 -0.8125 27.890625 -0.8125 C 31.597656 -0.8125 34.597656 -2.144531 36.890625 -4.8125 C 39.191406 -7.488281 40.34375 -10.578125 40.34375 -14.078125 C 40.34375 -17.429688 39.375 -20.285156 37.4375 -22.640625 C 36.625 -23.691406 35.710938 -24.554688 34.703125 -25.234375 C 33.691406 -25.921875 32.875 -26.367188 32.25 -26.578125 C 31.632812 -26.785156 30.738281 -27.039062 29.5625 -27.34375 C 21.894531 -29.1875 17.820312 -30.210938 17.34375 -30.421875 C 13.6875 -31.660156 10.75 -33.84375 8.53125 -36.96875 C 6.3125 -40.09375 5.203125 -43.570312 5.203125 -47.40625 C 5.203125 -52.351562 6.945312 -56.582031 10.4375 -60.09375 C 13.925781 -63.613281 18.203125 -65.375 23.265625 -65.375 C 25.804688 -65.375 28.140625 -64.972656 30.265625 -64.171875 C 32.390625 -63.367188 33.890625 -62.601562 34.765625 -61.875 C 35.640625 -61.15625 36.757812 -60.148438 38.125 -58.859375 L 41.328125 -64.15625 C 41.816406 -64.96875 42.285156 -65.375 42.734375 -65.375 C 43.222656 -65.375 43.519531 -65.226562 43.625 -64.9375 C 43.726562 -64.65625 43.78125 -64.0625 43.78125 -63.15625 L 43.78125 -44.5 C 43.78125 -43.8125 43.765625 -43.34375 43.734375 -43.09375 C 43.703125 -42.851562 43.585938 -42.65625 43.390625 -42.5 C 43.191406 -42.351562 42.914062 -42.28125 42.5625 -42.28125 C 41.957031 -42.28125 41.578125 -42.644531 41.421875 -43.375 C 39.703125 -56.289062 33.679688 -62.75 23.359375 -62.75 C 19.828125 -62.75 16.90625 -61.5625 14.59375 -59.1875 C 12.289062 -56.820312 11.140625 -53.960938 11.140625 -50.609375 C 11.140625 -47.898438 11.984375 -45.4375 13.671875 -43.21875 C 15.359375 -41 17.640625 -39.539062 20.515625 -38.84375 L 32.375 -35.984375 C 36.320312 -35.054688 39.625 -32.835938 42.28125 -29.328125 C 44.9375 -25.828125 46.265625 -21.800781 46.265625 -17.25 C 46.265625 -12 44.550781 -7.472656 41.125 -3.671875 C 37.695312 0.128906 33.316406 2.03125 27.984375 2.03125 C 24.148438 2.03125 20.753906 1.394531 17.796875 0.125 C 14.835938 -1.132812 12.554688 -2.65625 10.953125 -4.4375 C 9.710938 -2.382812 8.6875 -0.785156 7.875 0.359375 L 7.609375 0.8125 C 7.117188 1.625 6.648438 2.03125 6.203125 2.03125 C 5.722656 2.03125 5.4375 1.878906 5.34375 1.578125 C 5.25 1.273438 5.203125 0.6875 5.203125 -0.1875 Z M 5.203125 -0.1875 "/></g></g></g><g fill="#bd4a03" fill-opacity="1"><g transform="translate(58.50945, 149.121439)"><g><path d="M 2.578125 0 L 2.578125 -2.859375 L 5.03125 -2.859375 C 8.5 -2.859375 10.628906 -3.132812 11.421875 -3.6875 C 12.222656 -4.25 12.625 -5.4375 12.625 -7.25 L 12.625 -56.09375 C 12.625 -57.875 12.21875 -59.039062 11.40625 -59.59375 C 10.59375 -60.15625 8.46875 -60.4375 5.03125 -60.4375 L 2.578125 -60.4375 L 2.578125 -63.34375 C 4.753906 -63.15625 9.492188 -63.0625 16.796875 -63.0625 C 24.035156 -63.0625 28.726562 -63.15625 30.875 -63.34375 L 30.875 -60.4375 L 28.484375 -60.4375 C 25.003906 -60.4375 22.863281 -60.15625 22.0625 -59.59375 C 21.269531 -59.039062 20.875 -57.875 20.875 -56.09375 L 20.875 -7.25 C 20.875 -5.46875 21.269531 -4.289062 22.0625 -3.71875 C 22.863281 -3.144531 25.003906 -2.859375 28.484375 -2.859375 L 30.875 -2.859375 L 30.875 0 C 28.695312 -0.175781 23.972656 -0.265625 16.703125 -0.265625 C 9.460938 -0.265625 4.753906 -0.175781 2.578125 0 Z M 2.578125 0 "/></g></g></g><g fill="#bd4a03" fill-opacity="1"><g transform="translate(91.96513, 149.121439)"><g><path d="M 3.078125 0 L 3.078125 -2.859375 C 5.304688 -2.859375 7.128906 -3.078125 8.546875 -3.515625 C 9.972656 -3.953125 10.941406 -4.582031 11.453125 -5.40625 C 11.960938 -6.238281 12.285156 -6.929688 12.421875 -7.484375 C 12.554688 -8.046875 12.625 -8.796875 12.625 -9.734375 L 12.625 -58.125 C 12.625 -59 12.507812 -59.539062 12.28125 -59.75 C 12.0625 -59.96875 11.425781 -60.140625 10.375 -60.265625 C 8.53125 -60.378906 6.988281 -60.4375 5.75 -60.4375 L 3.078125 -60.4375 L 3.078125 -63.34375 L 18.828125 -63.34375 C 19.703125 -63.34375 20.257812 -63.28125 20.5 -63.15625 C 20.75 -63.03125 21.082031 -62.679688 21.5 -62.109375 L 54.234375 -13.984375 L 54.234375 -53.609375 C 54.234375 -54.535156 54.171875 -55.269531 54.046875 -55.8125 C 53.929688 -56.363281 53.609375 -57.0625 53.078125 -57.90625 C 52.554688 -58.75 51.582031 -59.378906 50.15625 -59.796875 C 48.738281 -60.222656 46.914062 -60.4375 44.6875 -60.4375 L 44.6875 -63.34375 C 51.175781 -63.15625 54.789062 -63.0625 55.53125 -63.0625 C 56.269531 -63.0625 59.882812 -63.15625 66.375 -63.34375 L 66.375 -60.4375 C 64.132812 -60.4375 62.304688 -60.222656 60.890625 -59.796875 C 59.472656 -59.378906 58.503906 -58.75 57.984375 -57.90625 C 57.472656 -57.0625 57.148438 -56.359375 57.015625 -55.796875 C 56.878906 -55.242188 56.8125 -54.515625 56.8125 -53.609375 L 56.8125 -2.40625 C 56.8125 -1.40625 56.75 -0.753906 56.625 -0.453125 C 56.507812 -0.148438 56.148438 0 55.546875 0 C 55.128906 0 54.601562 -0.40625 53.96875 -1.21875 L 16.109375 -56.8125 C 15.867188 -57.175781 15.570312 -57.554688 15.21875 -57.953125 L 15.21875 -9.734375 C 15.21875 -8.796875 15.273438 -8.046875 15.390625 -7.484375 C 15.515625 -6.929688 15.835938 -6.238281 16.359375 -5.40625 C 16.890625 -4.582031 17.863281 -3.953125 19.28125 -3.515625 C 20.695312 -3.078125 22.523438 -2.859375 24.765625 -2.859375 L 24.765625 0 C 18.273438 -0.175781 14.660156 -0.265625 13.921875 -0.265625 C 13.179688 -0.265625 9.566406 -0.175781 3.078125 0 Z M 3.078125 0 "/></g></g></g><g fill="#bd4a03" fill-opacity="1"><g transform="translate(161.50223, 149.121439)"><g><path d="M 14.734375 -7.78125 C 8.378906 -14.332031 5.203125 -22.304688 5.203125 -31.703125 C 5.203125 -41.109375 8.398438 -49.070312 14.796875 -55.59375 C 21.203125 -62.113281 28.75 -65.375 37.4375 -65.375 C 39.613281 -65.375 41.628906 -65.125 43.484375 -64.625 C 45.335938 -64.125 47.003906 -63.382812 48.484375 -62.40625 C 49.960938 -61.425781 51.085938 -60.609375 51.859375 -59.953125 C 52.628906 -59.304688 53.539062 -58.457031 54.59375 -57.40625 L 59.265625 -64.234375 C 59.742188 -64.992188 60.234375 -65.375 60.734375 -65.375 C 61.234375 -65.375 61.523438 -65.226562 61.609375 -64.9375 C 61.703125 -64.65625 61.75 -64.0625 61.75 -63.15625 L 61.75 -41.15625 C 61.75 -40.15625 61.6875 -39.535156 61.5625 -39.296875 C 61.445312 -39.054688 61.015625 -38.9375 60.265625 -38.9375 C 59.660156 -38.9375 59.296875 -39.023438 59.171875 -39.203125 C 59.046875 -39.390625 58.910156 -39.828125 58.765625 -40.515625 C 57.828125 -47.191406 55.492188 -52.519531 51.765625 -56.5 C 48.035156 -60.476562 43.640625 -62.46875 38.578125 -62.46875 C 37.097656 -62.46875 35.535156 -62.300781 33.890625 -61.96875 C 32.242188 -61.644531 30.21875 -60.847656 27.8125 -59.578125 C 25.414062 -58.304688 23.304688 -56.632812 21.484375 -54.5625 C 19.660156 -52.5 18.082031 -49.484375 16.75 -45.515625 C 15.425781 -41.546875 14.765625 -36.9375 14.765625 -31.6875 C 14.765625 -26.5 15.425781 -21.910156 16.75 -17.921875 C 18.082031 -13.941406 19.675781 -10.914062 21.53125 -8.84375 C 23.382812 -6.78125 25.523438 -5.097656 27.953125 -3.796875 C 30.378906 -2.503906 32.460938 -1.679688 34.203125 -1.328125 C 35.941406 -0.984375 37.578125 -0.8125 39.109375 -0.8125 C 40.171875 -0.8125 41.316406 -0.925781 42.546875 -1.15625 C 43.785156 -1.382812 45.332031 -1.835938 47.1875 -2.515625 C 49.050781 -3.191406 50.570312 -4.34375 51.75 -5.96875 C 52.925781 -7.601562 53.515625 -9.628906 53.515625 -12.046875 L 53.515625 -17.96875 C 53.515625 -19.8125 53.0625 -21.019531 52.15625 -21.59375 C 51.25 -22.164062 48.816406 -22.453125 44.859375 -22.453125 L 41.921875 -22.453125 L 41.921875 -25.3125 C 44.148438 -25.125 49.113281 -25.03125 56.8125 -25.03125 C 57.507812 -25.03125 61.285156 -25.125 68.140625 -25.3125 L 68.140625 -22.453125 C 65.179688 -22.453125 63.375 -22.234375 62.71875 -21.796875 C 62.070312 -21.359375 61.75 -20.21875 61.75 -18.375 L 61.75 -2.21875 C 61.75 -0.800781 61.476562 -0.09375 60.9375 -0.09375 C 60.457031 -0.09375 59.5 -0.785156 58.0625 -2.171875 C 56.625 -3.554688 55.59375 -4.78125 54.96875 -5.84375 C 53.488281 -3.25 51.140625 -1.289062 47.921875 0.03125 C 44.703125 1.363281 41.269531 2.03125 37.625 2.03125 C 28.71875 2.03125 21.085938 -1.238281 14.734375 -7.78125 Z M 14.734375 -7.78125 "/></g></g></g><g fill="#bd4a03" fill-opacity="1"><g transform="translate(234.16306, 149.121439)"><g><path d="M 3.078125 0 L 3.078125 -2.859375 L 5.296875 -2.859375 C 8.648438 -2.859375 10.707031 -3.132812 11.46875 -3.6875 C 12.238281 -4.25 12.625 -5.4375 12.625 -7.25 L 12.625 -55.828125 C 12.625 -57.609375 12.234375 -58.773438 11.453125 -59.328125 C 10.671875 -59.890625 8.617188 -60.171875 5.296875 -60.171875 L 3.078125 -60.171875 L 3.078125 -63.0625 L 55.28125 -63.0625 L 57.859375 -42.1875 L 55.546875 -42.1875 C 55.128906 -45.71875 54.640625 -48.503906 54.078125 -50.546875 C 53.515625 -52.585938 52.5625 -54.390625 51.21875 -55.953125 C 49.882812 -57.523438 48.117188 -58.617188 45.921875 -59.234375 C 43.734375 -59.859375 40.875 -60.171875 37.34375 -60.171875 L 25.390625 -60.171875 C 23.285156 -60.171875 22.003906 -59.953125 21.546875 -59.515625 C 21.097656 -59.078125 20.875 -58.054688 20.875 -56.453125 L 20.875 -34.21875 L 29.203125 -34.21875 C 33.453125 -34.21875 36.179688 -34.957031 37.390625 -36.4375 C 38.597656 -37.914062 39.203125 -40.785156 39.203125 -45.046875 L 41.5625 -45.046875 L 41.5625 -20.515625 L 39.203125 -20.515625 C 39.203125 -24.703125 38.597656 -27.550781 37.390625 -29.0625 C 36.179688 -30.570312 33.453125 -31.328125 29.203125 -31.328125 L 20.875 -31.328125 L 20.875 -6.5625 C 20.875 -4.96875 21.109375 -3.953125 21.578125 -3.515625 C 22.046875 -3.078125 23.316406 -2.859375 25.390625 -2.859375 L 37.75 -2.859375 C 40.40625 -2.859375 42.707031 -3.03125 44.65625 -3.375 C 46.601562 -3.71875 48.253906 -4.316406 49.609375 -5.171875 C 50.972656 -6.035156 52.113281 -6.96875 53.03125 -7.96875 C 53.957031 -8.96875 54.742188 -10.363281 55.390625 -12.15625 C 56.035156 -13.945312 56.546875 -15.671875 56.921875 -17.328125 C 57.304688 -18.992188 57.707031 -21.1875 58.125 -23.90625 L 60.4375 -23.90625 L 56.546875 0 Z M 3.078125 0 "/></g></g></g><g fill="#bd4a03" fill-opacity="1"><g transform="translate(297.181056, 149.121439)"><g><path d="M 3.265625 0 L 3.265625 -2.859375 L 5.484375 -2.859375 C 8.828125 -2.859375 10.882812 -3.132812 11.65625 -3.6875 C 12.425781 -4.25 12.8125 -5.4375 12.8125 -7.25 L 12.8125 -56.09375 C 12.8125 -57.875 12.414062 -59.039062 11.625 -59.59375 C 10.84375 -60.15625 8.796875 -60.4375 5.484375 -60.4375 L 3.265625 -60.4375 L 3.265625 -63.34375 L 37.171875 -63.34375 C 45.078125 -63.34375 51.785156 -60.1875 57.296875 -53.875 C 62.804688 -47.5625 65.5625 -39.984375 65.5625 -31.140625 C 65.5625 -22.484375 62.789062 -15.128906 57.25 -9.078125 C 51.707031 -3.023438 45.015625 0 37.171875 0 Z M 20.78125 -6.5625 C 20.78125 -4.96875 21.003906 -3.953125 21.453125 -3.515625 C 21.910156 -3.078125 23.195312 -2.859375 25.3125 -2.859375 L 34.671875 -2.859375 C 38.753906 -2.859375 42.164062 -3.691406 44.90625 -5.359375 C 47.65625 -7.035156 49.738281 -8.84375 51.15625 -10.78125 C 54.570312 -15.425781 56.28125 -22.210938 56.28125 -31.140625 C 56.28125 -40.535156 54.675781 -47.4375 51.46875 -51.84375 C 47.332031 -57.570312 41.707031 -60.4375 34.59375 -60.4375 L 25.3125 -60.4375 C 23.195312 -60.4375 21.910156 -60.222656 21.453125 -59.796875 C 21.003906 -59.378906 20.78125 -58.359375 20.78125 -56.734375 Z M 20.78125 -6.5625 "/></g></g></g></svg>